<svg xmlns="http://www.w3.org/2000/svg" width="906" height="1408" viewBox="0 0 906 1408" role="img" aria-label="Wireframe for Fieldnote">
<defs><pattern id="hatch" width="6" height="6" patternUnits="userSpaceOnUse" patternTransform="rotate(45)"><rect width="6" height="6" fill="#f4f4f5"/><line x1="0" y1="0" x2="0" y2="6" stroke="#a1a1aa" stroke-width="1" opacity="0.45"/></pattern></defs>
<rect x="0" y="0" width="906" height="1408" rx="0" fill="#ffffff"/>
<text x="24" y="24" font-size="14" font-family="ui-sans-serif, system-ui, -apple-system, 'Segoe UI', Roboto, sans-serif" font-weight="700" fill="#18181b">Fieldnote</text>
<text x="24" y="40" font-size="10" font-family="ui-monospace, SFMono-Regular, Menlo, Consolas, monospace" fill="#a1a1aa">premium / calm · editorial-brand-story · motion: parallax-slow · palette: Amber</text>
<line x1="24" y1="50" x2="882" y2="50" stroke="#e4e4e7" stroke-width="1"/>
<rect x="24" y="62" width="360" height="170" rx="3" fill="#f4f4f5" stroke="#d4d4d8" stroke-width="1"/>
<rect x="24" y="62" width="360" height="170" rx="2" fill="url(#hatch)"/><rect x="24" y="62" width="360" height="170" rx="2" fill="none" stroke="#a1a1aa" stroke-width="1"/><rect x="34" y="206" width="180" height="7" rx="2" fill="#18181b"/><rect x="34" y="217" width="108" height="4" rx="2" fill="#71717a"/>
<text x="412" y="73" font-size="12.5" font-family="ui-sans-serif, system-ui, -apple-system, 'Segoe UI', Roboto, sans-serif" font-weight="600" fill="#18181b">the-opening</text><text x="412" y="87" font-size="9.5" font-family="ui-monospace, SFMono-Regular, Menlo, Consolas, monospace" fill="#a1a1aa">cinematic · parallax-depth (motion)</text><text x="412" y="104" font-size="8" font-family="ui-monospace, SFMono-Regular, Menlo, Consolas, monospace" fill="#a1a1aa" letter-spacing="0.06em">PURPOSE</text><text x="458" y="104" font-size="10.5" font-family="ui-sans-serif, system-ui, -apple-system, 'Segoe UI', Roboto, sans-serif" fill="#71717a">land the promise in one image and six words</text><text x="412" y="118" font-size="8" font-family="ui-monospace, SFMono-Regular, Menlo, Consolas, monospace" fill="#a1a1aa" letter-spacing="0.06em">MEDIA</text><text x="458" y="118" font-size="10.5" font-family="ui-sans-serif, system-ui, -apple-system, 'Segoe UI', Roboto, sans-serif" fill="#71717a">full-bleed workshop photography, warm grain</text><text x="412" y="132" font-size="8" font-family="ui-monospace, SFMono-Regular, Menlo, Consolas, monospace" fill="#a1a1aa" letter-spacing="0.06em">MOTION</text><text x="458" y="132" font-size="10.5" font-family="ui-monospace, SFMono-Regular, Menlo, Consolas, monospace" fill="#7c3aed">parallax-depth — parallax-slow (page lock)</text>
<rect x="24" y="242" width="360" height="102" rx="3" fill="#f4f4f5" stroke="#d4d4d8" stroke-width="1"/>
<rect x="34" y="252" width="158.4" height="8" rx="2" fill="#18181b"/><rect x="34" y="272" width="102.3" height="4" rx="2" fill="#d4d4d8"/><rect x="34" y="281" width="146.85" height="4" rx="2" fill="#d4d4d8"/><rect x="34" y="290" width="138.6" height="4" rx="2" fill="#d4d4d8"/><rect x="34" y="299" width="150.15" height="4" rx="2" fill="#d4d4d8"/><rect x="34" y="308" width="141.9" height="4" rx="2" fill="#d4d4d8"/><rect x="34" y="317" width="72.6" height="4" rx="2" fill="#d4d4d8"/><rect x="209" y="272" width="102.3" height="4" rx="2" fill="#d4d4d8"/><rect x="209" y="281" width="146.85" height="4" rx="2" fill="#d4d4d8"/><rect x="209" y="290" width="138.6" height="4" rx="2" fill="#d4d4d8"/><rect x="209" y="299" width="150.15" height="4" rx="2" fill="#d4d4d8"/><rect x="209" y="308" width="141.9" height="4" rx="2" fill="#d4d4d8"/><rect x="209" y="317" width="72.6" height="4" rx="2" fill="#d4d4d8"/>
<text x="412" y="253" font-size="12.5" font-family="ui-sans-serif, system-ui, -apple-system, 'Segoe UI', Roboto, sans-serif" font-weight="600" fill="#18181b">manifesto</text><text x="412" y="267" font-size="9.5" font-family="ui-monospace, SFMono-Regular, Menlo, Consolas, monospace" fill="#a1a1aa">editorial · freeform</text><text x="412" y="284" font-size="8" font-family="ui-monospace, SFMono-Regular, Menlo, Consolas, monospace" fill="#a1a1aa" letter-spacing="0.06em">PURPOSE</text><text x="458" y="284" font-size="10.5" font-family="ui-sans-serif, system-ui, -apple-system, 'Segoe UI', Roboto, sans-serif" fill="#71717a">state the belief the brand is built on, in its own voice</text><text x="412" y="298" font-size="8" font-family="ui-monospace, SFMono-Regular, Menlo, Consolas, monospace" fill="#a1a1aa" letter-spacing="0.06em">MOTION</text><text x="458" y="298" font-size="10.5" font-family="ui-sans-serif, system-ui, -apple-system, 'Segoe UI', Roboto, sans-serif" fill="#71717a">parallax-slow (page lock, no primitive)</text>
<rect x="24" y="354" width="360" height="170" rx="3" fill="#f4f4f5" stroke="#d4d4d8" stroke-width="1"/>
<rect x="34" y="364" width="340" height="73" rx="2" fill="url(#hatch)"/><rect x="34" y="364" width="340" height="73" rx="2" fill="none" stroke="#a1a1aa" stroke-width="1"/><rect x="34" y="441" width="340" height="73" rx="2" fill="url(#hatch)"/><rect x="34" y="441" width="340" height="73" rx="2" fill="none" stroke="#a1a1aa" stroke-width="1"/><g stroke="#7c3aed" stroke-width="1.5" fill="none"><path d="M 362 370 L 362 508" stroke-dasharray="3 3"/><circle cx="362" cy="439" r="3.5" fill="#7c3aed" stroke="none"/></g><text x="354" y="431" text-anchor="end" font-size="7" fill="#7c3aed" font-family="ui-sans-serif, system-ui, -apple-system, 'Segoe UI', Roboto, sans-serif">PINNED</text>
<text x="412" y="365" font-size="12.5" font-family="ui-sans-serif, system-ui, -apple-system, 'Segoe UI', Roboto, sans-serif" font-weight="600" fill="#18181b">the-ritual</text><text x="412" y="379" font-size="9.5" font-family="ui-monospace, SFMono-Regular, Menlo, Consolas, monospace" fill="#a1a1aa">immersive · pinned-crossfade (motion)</text><text x="412" y="396" font-size="8" font-family="ui-monospace, SFMono-Regular, Menlo, Consolas, monospace" fill="#a1a1aa" letter-spacing="0.06em">PURPOSE</text><text x="458" y="396" font-size="10.5" font-family="ui-sans-serif, system-ui, -apple-system, 'Segoe UI', Roboto, sans-serif" fill="#71717a">hold the reader inside one moment of the process</text><text x="412" y="410" font-size="8" font-family="ui-monospace, SFMono-Regular, Menlo, Consolas, monospace" fill="#a1a1aa" letter-spacing="0.06em">MEDIA</text><text x="458" y="410" font-size="10.5" font-family="ui-sans-serif, system-ui, -apple-system, 'Segoe UI', Roboto, sans-serif" fill="#71717a">two facing panels: raw material, finished object</text><text x="412" y="424" font-size="8" font-family="ui-monospace, SFMono-Regular, Menlo, Consolas, monospace" fill="#a1a1aa" letter-spacing="0.06em">MOTION</text><text x="458" y="424" font-size="10.5" font-family="ui-monospace, SFMono-Regular, Menlo, Consolas, monospace" fill="#7c3aed">pinned-crossfade — first panel dissolves into the second while pinned</text>
<rect x="24" y="534" width="360" height="136" rx="3" fill="#f4f4f5" stroke="#d4d4d8" stroke-width="1"/>
<rect x="209" y="544" width="165" height="116" rx="2" fill="url(#hatch)"/><rect x="209" y="544" width="165" height="116" rx="2" fill="none" stroke="#a1a1aa" stroke-width="1"/><rect x="34" y="548" width="115.5" height="8" rx="2" fill="#18181b"/><rect x="34" y="566" width="102.3" height="4" rx="2" fill="#d4d4d8"/><rect x="34" y="575" width="146.85" height="4" rx="2" fill="#d4d4d8"/><rect x="34" y="584" width="138.6" height="4" rx="2" fill="#d4d4d8"/><rect x="34" y="593" width="150.15" height="4" rx="2" fill="#d4d4d8"/><rect x="34" y="602" width="141.9" height="4" rx="2" fill="#d4d4d8"/><rect x="34" y="611" width="153.45" height="4" rx="2" fill="#d4d4d8"/><rect x="34" y="620" width="145.2" height="4" rx="2" fill="#d4d4d8"/><rect x="34" y="629" width="136.95" height="4" rx="2" fill="#d4d4d8"/><rect x="34" y="638" width="148.5" height="4" rx="2" fill="#d4d4d8"/><rect x="34" y="647" width="72.6" height="4" rx="2" fill="#d4d4d8"/>
<text x="412" y="545" font-size="12.5" font-family="ui-sans-serif, system-ui, -apple-system, 'Segoe UI', Roboto, sans-serif" font-weight="600" fill="#18181b">field-notes</text><text x="412" y="559" font-size="9.5" font-family="ui-monospace, SFMono-Regular, Menlo, Consolas, monospace" fill="#a1a1aa">narrative · freeform</text><text x="412" y="576" font-size="8" font-family="ui-monospace, SFMono-Regular, Menlo, Consolas, monospace" fill="#a1a1aa" letter-spacing="0.06em">PURPOSE</text><text x="458" y="576" font-size="10.5" font-family="ui-sans-serif, system-ui, -apple-system, 'Segoe UI', Roboto, sans-serif" fill="#71717a">alternate proof and reflection down the page</text><text x="412" y="590" font-size="8" font-family="ui-monospace, SFMono-Regular, Menlo, Consolas, monospace" fill="#a1a1aa" letter-spacing="0.06em">MEDIA</text><text x="458" y="590" font-size="10.5" font-family="ui-sans-serif, system-ui, -apple-system, 'Segoe UI', Roboto, sans-serif" fill="#71717a">documentary stills, unstaged</text><text x="412" y="604" font-size="8" font-family="ui-monospace, SFMono-Regular, Menlo, Consolas, monospace" fill="#a1a1aa" letter-spacing="0.06em">MOTION</text><text x="458" y="604" font-size="10.5" font-family="ui-sans-serif, system-ui, -apple-system, 'Segoe UI', Roboto, sans-serif" fill="#71717a">parallax-slow (page lock, no primitive)</text>
<rect x="24" y="680" width="360" height="102" rx="3" fill="#f4f4f5" stroke="#d4d4d8" stroke-width="1"/>
<rect x="34" y="690" width="165" height="82" rx="2" fill="url(#hatch)"/><rect x="34" y="690" width="165" height="82" rx="2" fill="none" stroke="#a1a1aa" stroke-width="1"/><rect x="209" y="694" width="115.5" height="8" rx="2" fill="#18181b"/><rect x="209" y="712" width="102.3" height="4" rx="2" fill="#d4d4d8"/><rect x="209" y="721" width="146.85" height="4" rx="2" fill="#d4d4d8"/><rect x="209" y="730" width="138.6" height="4" rx="2" fill="#d4d4d8"/><rect x="209" y="739" width="150.15" height="4" rx="2" fill="#d4d4d8"/><rect x="209" y="748" width="141.9" height="4" rx="2" fill="#d4d4d8"/><rect x="209" y="757" width="72.6" height="4" rx="2" fill="#d4d4d8"/>
<text x="412" y="691" font-size="12.5" font-family="ui-sans-serif, system-ui, -apple-system, 'Segoe UI', Roboto, sans-serif" font-weight="600" fill="#18181b">the-makers</text><text x="412" y="705" font-size="9.5" font-family="ui-monospace, SFMono-Regular, Menlo, Consolas, monospace" fill="#a1a1aa">narrative · freeform</text><text x="412" y="722" font-size="8" font-family="ui-monospace, SFMono-Regular, Menlo, Consolas, monospace" fill="#a1a1aa" letter-spacing="0.06em">PURPOSE</text><text x="458" y="722" font-size="10.5" font-family="ui-sans-serif, system-ui, -apple-system, 'Segoe UI', Roboto, sans-serif" fill="#71717a">put faces to the process — the second beat of the rhythm</text><text x="412" y="736" font-size="8" font-family="ui-monospace, SFMono-Regular, Menlo, Consolas, monospace" fill="#a1a1aa" letter-spacing="0.06em">MEDIA</text><text x="458" y="736" font-size="10.5" font-family="ui-sans-serif, system-ui, -apple-system, 'Segoe UI', Roboto, sans-serif" fill="#71717a">portraits at working distance</text><text x="412" y="750" font-size="8" font-family="ui-monospace, SFMono-Regular, Menlo, Consolas, monospace" fill="#a1a1aa" letter-spacing="0.06em">MOTION</text><text x="458" y="750" font-size="10.5" font-family="ui-sans-serif, system-ui, -apple-system, 'Segoe UI', Roboto, sans-serif" fill="#71717a">parallax-slow (page lock, no primitive)</text>
<rect x="24" y="792" width="360" height="136" rx="3" fill="#f4f4f5" stroke="#d4d4d8" stroke-width="1"/>
<rect x="34" y="802" width="80.5" height="67.28" rx="2" fill="url(#hatch)"/><rect x="34" y="802" width="80.5" height="67.28" rx="2" fill="none" stroke="#a1a1aa" stroke-width="1"/><rect x="34" y="875.28" width="80.5" height="42.72" rx="2" fill="url(#hatch)"/><rect x="34" y="875.28" width="80.5" height="42.72" rx="2" fill="none" stroke="#a1a1aa" stroke-width="1"/><rect x="120.5" y="802" width="80.5" height="46.4" rx="2" fill="url(#hatch)"/><rect x="120.5" y="802" width="80.5" height="46.4" rx="2" fill="none" stroke="#a1a1aa" stroke-width="1"/><rect x="120.5" y="854.4" width="80.5" height="63.6" rx="2" fill="url(#hatch)"/><rect x="120.5" y="854.4" width="80.5" height="63.6" rx="2" fill="none" stroke="#a1a1aa" stroke-width="1"/><rect x="207" y="802" width="80.5" height="67.28" rx="2" fill="url(#hatch)"/><rect x="207" y="802" width="80.5" height="67.28" rx="2" fill="none" stroke="#a1a1aa" stroke-width="1"/><rect x="207" y="875.28" width="80.5" height="42.72" rx="2" fill="url(#hatch)"/><rect x="207" y="875.28" width="80.5" height="42.72" rx="2" fill="none" stroke="#a1a1aa" stroke-width="1"/><rect x="293.5" y="802" width="80.5" height="46.4" rx="2" fill="url(#hatch)"/><rect x="293.5" y="802" width="80.5" height="46.4" rx="2" fill="none" stroke="#a1a1aa" stroke-width="1"/><rect x="293.5" y="854.4" width="80.5" height="63.6" rx="2" fill="url(#hatch)"/><rect x="293.5" y="854.4" width="80.5" height="63.6" rx="2" fill="none" stroke="#a1a1aa" stroke-width="1"/>
<text x="412" y="803" font-size="12.5" font-family="ui-sans-serif, system-ui, -apple-system, 'Segoe UI', Roboto, sans-serif" font-weight="600" fill="#18181b">process-atlas</text><text x="412" y="817" font-size="9.5" font-family="ui-monospace, SFMono-Regular, Menlo, Consolas, monospace" fill="#a1a1aa">gallery · freeform</text><text x="412" y="834" font-size="8" font-family="ui-monospace, SFMono-Regular, Menlo, Consolas, monospace" fill="#a1a1aa" letter-spacing="0.06em">PURPOSE</text><text x="458" y="834" font-size="10.5" font-family="ui-sans-serif, system-ui, -apple-system, 'Segoe UI', Roboto, sans-serif" fill="#71717a">show the range without narrating it</text><text x="412" y="848" font-size="8" font-family="ui-monospace, SFMono-Regular, Menlo, Consolas, monospace" fill="#a1a1aa" letter-spacing="0.06em">MEDIA</text><text x="458" y="848" font-size="10.5" font-family="ui-sans-serif, system-ui, -apple-system, 'Segoe UI', Roboto, sans-serif" fill="#71717a">masonry of material studies</text><text x="412" y="862" font-size="8" font-family="ui-monospace, SFMono-Regular, Menlo, Consolas, monospace" fill="#a1a1aa" letter-spacing="0.06em">MOTION</text><text x="458" y="862" font-size="10.5" font-family="ui-sans-serif, system-ui, -apple-system, 'Segoe UI', Roboto, sans-serif" fill="#71717a">parallax-slow (page lock, no primitive)</text>
<rect x="24" y="938" width="360" height="102" rx="3" fill="#f4f4f5" stroke="#d4d4d8" stroke-width="1"/>
<rect x="34" y="962" width="100.32" height="8" rx="2" fill="#18181b"/><rect x="34" y="980" width="77.75" height="4" rx="2" fill="#d4d4d8"/><rect x="34" y="989" width="111.61" height="4" rx="2" fill="#d4d4d8"/><rect x="34" y="998" width="105.34" height="4" rx="2" fill="#d4d4d8"/><rect x="34" y="1007" width="55.18" height="4" rx="2" fill="#d4d4d8"/><rect x="169.4" y="948" width="204.6" height="68" rx="2" fill="url(#hatch)"/><rect x="169.4" y="948" width="204.6" height="68" rx="2" fill="none" stroke="#a1a1aa" stroke-width="1"/>
<text x="412" y="949" font-size="12.5" font-family="ui-sans-serif, system-ui, -apple-system, 'Segoe UI', Roboto, sans-serif" font-weight="600" fill="#18181b">what-it-costs</text><text x="412" y="963" font-size="9.5" font-family="ui-monospace, SFMono-Regular, Menlo, Consolas, monospace" fill="#a1a1aa">asymmetric · freeform</text><text x="412" y="980" font-size="8" font-family="ui-monospace, SFMono-Regular, Menlo, Consolas, monospace" fill="#a1a1aa" letter-spacing="0.06em">PURPOSE</text><text x="458" y="980" font-size="10.5" font-family="ui-sans-serif, system-ui, -apple-system, 'Segoe UI', Roboto, sans-serif" fill="#71717a">answer the price question without flinching</text><text x="412" y="994" font-size="8" font-family="ui-monospace, SFMono-Regular, Menlo, Consolas, monospace" fill="#a1a1aa" letter-spacing="0.06em">MOTION</text><text x="458" y="994" font-size="10.5" font-family="ui-sans-serif, system-ui, -apple-system, 'Segoe UI', Roboto, sans-serif" fill="#71717a">parallax-slow (page lock, no primitive)</text>
<rect x="24" y="1050" width="360" height="102" rx="3" fill="#f4f4f5" stroke="#d4d4d8" stroke-width="1"/>
<rect x="34" y="1060" width="153.64" height="82" rx="3" fill="#d4d4d8"/><rect x="193.64" y="1060" width="87.18" height="38" rx="3" fill="#d4d4d8"/><rect x="286.82" y="1060" width="87.18" height="38" rx="3" fill="#d4d4d8"/><rect x="193.64" y="1104" width="180.36" height="38" rx="3" fill="#d4d4d8"/>
<text x="412" y="1061" font-size="12.5" font-family="ui-sans-serif, system-ui, -apple-system, 'Segoe UI', Roboto, sans-serif" font-weight="600" fill="#18181b">the-index</text><text x="412" y="1075" font-size="9.5" font-family="ui-monospace, SFMono-Regular, Menlo, Consolas, monospace" fill="#a1a1aa">modular · freeform</text><text x="412" y="1092" font-size="8" font-family="ui-monospace, SFMono-Regular, Menlo, Consolas, monospace" fill="#a1a1aa" letter-spacing="0.06em">PURPOSE</text><text x="458" y="1092" font-size="10.5" font-family="ui-sans-serif, system-ui, -apple-system, 'Segoe UI', Roboto, sans-serif" fill="#71717a">let the reader choose their own entry point</text><text x="412" y="1106" font-size="8" font-family="ui-monospace, SFMono-Regular, Menlo, Consolas, monospace" fill="#a1a1aa" letter-spacing="0.06em">MOTION</text><text x="458" y="1106" font-size="10.5" font-family="ui-sans-serif, system-ui, -apple-system, 'Segoe UI', Roboto, sans-serif" fill="#71717a">parallax-slow (page lock, no primitive)</text>
<rect x="24" y="1162" width="360" height="136" rx="3" fill="#f4f4f5" stroke="#d4d4d8" stroke-width="1"/>
<path d="M 42 1172 L 42 1288" stroke="#d4d4d8" stroke-width="1.5" fill="none"/><circle cx="42" cy="1172" r="3.5" fill="#a1a1aa"/><rect x="54" y="1167" width="108" height="5" rx="2" fill="#18181b"/><rect x="54" y="1175" width="187.2" height="3.5" rx="2" fill="#d4d4d8"/><circle cx="42" cy="1201" r="3.5" fill="#a1a1aa"/><rect x="54" y="1196" width="108" height="5" rx="2" fill="#18181b"/><rect x="54" y="1204" width="187.2" height="3.5" rx="2" fill="#d4d4d8"/><circle cx="42" cy="1230" r="3.5" fill="#a1a1aa"/><rect x="54" y="1225" width="108" height="5" rx="2" fill="#18181b"/><rect x="54" y="1233" width="187.2" height="3.5" rx="2" fill="#d4d4d8"/><circle cx="42" cy="1259" r="3.5" fill="#a1a1aa"/><rect x="54" y="1254" width="108" height="5" rx="2" fill="#18181b"/><rect x="54" y="1262" width="187.2" height="3.5" rx="2" fill="#d4d4d8"/><circle cx="42" cy="1288" r="3.5" fill="#a1a1aa"/><rect x="54" y="1283" width="108" height="5" rx="2" fill="#18181b"/><rect x="54" y="1291" width="187.2" height="3.5" rx="2" fill="#d4d4d8"/>
<text x="412" y="1173" font-size="12.5" font-family="ui-sans-serif, system-ui, -apple-system, 'Segoe UI', Roboto, sans-serif" font-weight="600" fill="#18181b">provenance</text><text x="412" y="1187" font-size="9.5" font-family="ui-monospace, SFMono-Regular, Menlo, Consolas, monospace" fill="#a1a1aa">timeline · freeform</text><text x="412" y="1204" font-size="8" font-family="ui-monospace, SFMono-Regular, Menlo, Consolas, monospace" fill="#a1a1aa" letter-spacing="0.06em">PURPOSE</text><text x="458" y="1204" font-size="10.5" font-family="ui-sans-serif, system-ui, -apple-system, 'Segoe UI', Roboto, sans-serif" fill="#71717a">trace the object back to its origin</text><text x="412" y="1218" font-size="8" font-family="ui-monospace, SFMono-Regular, Menlo, Consolas, monospace" fill="#a1a1aa" letter-spacing="0.06em">MOTION</text><text x="458" y="1218" font-size="10.5" font-family="ui-sans-serif, system-ui, -apple-system, 'Segoe UI', Roboto, sans-serif" fill="#71717a">parallax-slow (page lock, no primitive)</text>
<rect x="24" y="1308" width="360" height="76" rx="3" fill="#f4f4f5" stroke="#d4d4d8" stroke-width="1"/>
<rect x="24" y="1308" width="360" height="76" rx="2" fill="url(#hatch)"/><rect x="24" y="1308" width="360" height="76" rx="2" fill="none" stroke="#a1a1aa" stroke-width="1"/><rect x="34" y="1358" width="180" height="7" rx="2" fill="#18181b"/><rect x="34" y="1369" width="108" height="4" rx="2" fill="#71717a"/>
<text x="412" y="1319" font-size="12.5" font-family="ui-sans-serif, system-ui, -apple-system, 'Segoe UI', Roboto, sans-serif" font-weight="600" fill="#18181b">the-ask</text><text x="412" y="1333" font-size="9.5" font-family="ui-monospace, SFMono-Regular, Menlo, Consolas, monospace" fill="#a1a1aa">cinematic · kinetic-text-split (motion)</text><text x="412" y="1350" font-size="8" font-family="ui-monospace, SFMono-Regular, Menlo, Consolas, monospace" fill="#a1a1aa" letter-spacing="0.06em">PURPOSE</text><text x="458" y="1350" font-size="10.5" font-family="ui-sans-serif, system-ui, -apple-system, 'Segoe UI', Roboto, sans-serif" fill="#71717a">one line, one action, no noise</text><text x="412" y="1364" font-size="8" font-family="ui-monospace, SFMono-Regular, Menlo, Consolas, monospace" fill="#a1a1aa" letter-spacing="0.06em">MOTION</text><text x="458" y="1364" font-size="10.5" font-family="ui-monospace, SFMono-Regular, Menlo, Consolas, monospace" fill="#7c3aed">kinetic-text-split — parallax-slow (page lock)</text>
</svg>